<?xml version="1.0" encoding="utf-8"?>
<!-- Generator: Adobe Illustrator 21.1.0, SVG Export Plug-In . SVG Version: 6.00 Build 0)  -->
<svg version="1.1" id="Layer_1" xmlns="http://www.w3.org/2000/svg" xmlns:xlink="http://www.w3.org/1999/xlink" x="0px" y="0px"
	 viewBox="0 0 1291.7 308" style="enable-background:new 0 0 1291.7 308;" xml:space="preserve">
<style type="text/css">
	.st0{fill:none;}
	.st1{enable-background:new    ;}
	.st2{fill:#00A9E5;}
	.st3{fill:#353535;}
	.st4{fill:#00BFB3;}
	.st5{fill:#019B8F;}
	.st6{fill:#F9B110;}
	.st7{fill:#FED10A;}
</style>
<rect x="315" y="75.3" class="st0" width="985.9" height="129.1"/>
<g class="st1">
	<path d="M363,191.6c-12.7,0-22.6-3.7-29.8-11.1c-7.2-7.4-10.7-17.6-10.7-30.6c0-13.3,3.3-23.8,10-31.4c6.6-7.6,15.8-11.4,27.4-11.4
		c10.8,0,19.3,3.3,25.5,9.8c6.2,6.5,9.4,15.6,9.4,27v9.4h-54.4c0.2,7.9,2.4,14,6.4,18.3c4,4.3,9.7,6.4,17.1,6.4
		c4.8,0,9.3-0.5,13.5-1.4c4.2-0.9,8.6-2.4,13.4-4.5v14.1c-4.2,2-8.5,3.4-12.8,4.3C373.5,191.2,368.6,191.6,363,191.6z M359.9,120.2
		c-5.5,0-9.9,1.7-13.3,5.2c-3.3,3.5-5.3,8.6-5.9,15.3h37.1c-0.1-6.7-1.7-11.8-4.9-15.3C369.7,121.9,365.4,120.2,359.9,120.2z"/>
	<path d="M431.8,190.2h-17.3V75.3h17.3V190.2z"/>
	<path d="M507.7,190.2l-3.5-11.4h-0.6c-3.9,5-7.9,8.4-11.9,10.2s-9.1,2.7-15.4,2.7c-8,0-14.3-2.2-18.8-6.5
		c-4.5-4.3-6.8-10.5-6.8-18.4c0-8.4,3.1-14.8,9.4-19c6.2-4.3,15.8-6.6,28.6-7l14.1-0.4v-4.4c0-5.2-1.2-9.1-3.7-11.7
		c-2.4-2.6-6.2-3.9-11.3-3.9c-4.2,0-8.2,0.6-12,1.8c-3.8,1.2-7.5,2.7-11.1,4.4l-5.6-12.4c4.4-2.3,9.3-4.1,14.5-5.3
		c5.3-1.2,10.2-1.8,14.9-1.8c10.4,0,18.2,2.3,23.5,6.8c5.3,4.5,7.9,11.6,7.9,21.3v55H507.7z M481.9,178.3c6.3,0,11.4-1.8,15.2-5.3
		c3.8-3.5,5.7-8.5,5.7-14.8v-7.1l-10.5,0.4c-8.2,0.3-14.1,1.7-17.8,4.1c-3.7,2.4-5.6,6.2-5.6,11.2c0,3.6,1.1,6.5,3.2,8.5
		C474.3,177.4,477.6,178.3,481.9,178.3z"/>
	<path d="M599.2,166.9c0,8-2.9,14.1-8.7,18.3c-5.8,4.3-14.1,6.4-25,6.4c-10.9,0-19.6-1.6-26.2-4.9v-15c9.6,4.4,18.5,6.6,26.8,6.6
		c10.7,0,16-3.2,16-9.7c0-2.1-0.6-3.8-1.8-5.2c-1.2-1.4-3.1-2.8-5.8-4.3c-2.7-1.5-6.5-3.1-11.3-5c-9.4-3.6-15.8-7.3-19.1-10.9
		c-3.3-3.6-5-8.4-5-14.2c0-7,2.8-12.4,8.5-16.3c5.6-3.9,13.3-5.8,23-5.8c9.6,0,18.7,1.9,27.2,5.8l-5.6,13.1
		c-8.8-3.6-16.2-5.5-22.2-5.5c-9.2,0-13.7,2.6-13.7,7.8c0,2.6,1.2,4.7,3.6,6.5c2.4,1.8,7.6,4.2,15.6,7.3c6.7,2.6,11.6,5,14.7,7.2
		c3.1,2.2,5.3,4.7,6.8,7.5C598.4,159.6,599.2,163,599.2,166.9z"/>
	<path d="M648.4,177.6c4.2,0,8.5-0.7,12.7-2v13.1c-1.9,0.8-4.4,1.5-7.4,2.1c-3,0.6-6.2,0.8-9.4,0.8c-16.4,0-24.7-8.7-24.7-26v-44
		h-11.1V114l12-6.3l5.9-17.3H637v18.2h23.3v13.1H637v43.7c0,4.2,1,7.3,3.1,9.3C642.2,176.6,645,177.6,648.4,177.6z"/>
	<path d="M676.3,86.9c0-3.1,0.8-5.5,2.5-7.2c1.7-1.7,4.1-2.5,7.3-2.5c3.1,0,5.4,0.8,7.1,2.5c1.7,1.7,2.5,4.1,2.5,7.2
		c0,3-0.8,5.3-2.5,7c-1.7,1.7-4.1,2.5-7.1,2.5c-3.2,0-5.6-0.8-7.3-2.5C677.2,92.2,676.3,89.8,676.3,86.9z M694.7,190.2h-17.3v-81.6
		h17.3V190.2z"/>
	<path d="M752.4,191.6c-12.4,0-21.7-3.6-28.2-10.8c-6.4-7.2-9.6-17.6-9.6-31c0-13.7,3.4-24.3,10.1-31.7c6.7-7.4,16.4-11.1,29.1-11.1
		c8.6,0,16.4,1.6,23.3,4.8l-5.2,14c-7.3-2.9-13.4-4.3-18.2-4.3c-14.1,0-21.2,9.4-21.2,28.1c0,9.2,1.8,16,5.3,20.6
		c3.5,4.6,8.7,6.9,15.5,6.9c7.7,0,15-1.9,21.9-5.8v15.1c-3.1,1.8-6.4,3.1-9.9,3.9C761.7,191.2,757.5,191.6,752.4,191.6z"/>
	<path d="M849.2,166.9c0,8-2.9,14.1-8.7,18.3c-5.8,4.3-14.1,6.4-25,6.4c-10.9,0-19.6-1.6-26.2-4.9v-15c9.6,4.4,18.5,6.6,26.8,6.6
		c10.7,0,16-3.2,16-9.7c0-2.1-0.6-3.8-1.8-5.2c-1.2-1.4-3.1-2.8-5.8-4.3c-2.7-1.5-6.5-3.1-11.3-5c-9.4-3.6-15.8-7.3-19.1-10.9
		c-3.3-3.6-5-8.4-5-14.2c0-7,2.8-12.4,8.5-16.3c5.6-3.9,13.3-5.8,23-5.8c9.6,0,18.7,1.9,27.2,5.8l-5.6,13.1
		c-8.8-3.6-16.2-5.5-22.2-5.5c-9.2,0-13.7,2.6-13.7,7.8c0,2.6,1.2,4.7,3.6,6.5c2.4,1.8,7.6,4.2,15.6,7.3c6.7,2.6,11.6,5,14.7,7.2
		c3.1,2.2,5.3,4.7,6.8,7.5C848.5,159.6,849.2,163,849.2,166.9z"/>
	<path d="M903.6,191.6c-12.7,0-22.6-3.7-29.8-11.1c-7.2-7.4-10.7-17.6-10.7-30.6c0-13.3,3.3-23.8,10-31.4
		c6.6-7.6,15.8-11.4,27.4-11.4c10.8,0,19.3,3.3,25.5,9.8c6.2,6.5,9.4,15.6,9.4,27v9.4H881c0.2,7.9,2.4,14,6.4,18.3
		c4,4.3,9.7,6.4,17.1,6.4c4.8,0,9.3-0.5,13.5-1.4c4.2-0.9,8.6-2.4,13.4-4.5v14.1c-4.2,2-8.5,3.4-12.8,4.3
		C914.1,191.2,909.2,191.6,903.6,191.6z M900.4,120.2c-5.5,0-9.9,1.7-13.3,5.2c-3.3,3.5-5.3,8.6-5.9,15.3h37.1
		c-0.1-6.7-1.7-11.8-4.9-15.3C910.3,121.9,906,120.2,900.4,120.2z"/>
	<path d="M1006.2,190.2l-3.5-11.4h-0.6c-3.9,5-7.9,8.4-11.9,10.2s-9.1,2.7-15.4,2.7c-8,0-14.3-2.2-18.8-6.5
		c-4.5-4.3-6.8-10.5-6.8-18.4c0-8.4,3.1-14.8,9.4-19c6.2-4.3,15.8-6.6,28.6-7l14.1-0.4v-4.4c0-5.2-1.2-9.1-3.7-11.7
		c-2.4-2.6-6.2-3.9-11.3-3.9c-4.2,0-8.2,0.6-12,1.8c-3.8,1.2-7.5,2.7-11.1,4.4l-5.6-12.4c4.4-2.3,9.3-4.1,14.5-5.3
		c5.3-1.2,10.2-1.8,14.9-1.8c10.4,0,18.2,2.3,23.5,6.8c5.3,4.5,7.9,11.6,7.9,21.3v55H1006.2z M980.3,178.3c6.3,0,11.4-1.8,15.2-5.3
		c3.8-3.5,5.7-8.5,5.7-14.8v-7.1l-10.5,0.4c-8.2,0.3-14.1,1.7-17.8,4.1c-3.7,2.4-5.6,6.2-5.6,11.2c0,3.6,1.1,6.5,3.2,8.5
		C972.7,177.4,976,178.3,980.3,178.3z"/>
	<path d="M1084.2,107c3.5,0,6.4,0.2,8.6,0.7l-1.7,16.2c-2.5-0.6-5-0.9-7.7-0.9c-6.9,0-12.6,2.3-16.9,6.8c-4.3,4.5-6.5,10.4-6.5,17.6
		v42.7h-17.3v-81.6h13.6l2.3,14.4h0.9c2.7-4.9,6.2-8.7,10.6-11.6C1074.5,108.5,1079.2,107,1084.2,107z"/>
	<path d="M1140.9,191.6c-12.4,0-21.7-3.6-28.2-10.8c-6.4-7.2-9.6-17.6-9.6-31c0-13.7,3.4-24.3,10.1-31.7
		c6.7-7.4,16.4-11.1,29.1-11.1c8.6,0,16.4,1.6,23.3,4.8l-5.2,14c-7.3-2.9-13.4-4.3-18.2-4.3c-14.1,0-21.2,9.4-21.2,28.1
		c0,9.2,1.8,16,5.3,20.6c3.5,4.6,8.7,6.9,15.5,6.9c7.7,0,15-1.9,21.9-5.8v15.1c-3.1,1.8-6.4,3.1-9.9,3.9
		C1150.2,191.2,1145.9,191.6,1140.9,191.6z"/>
	<path d="M1254.6,190.2h-17.4V140c0-6.3-1.3-11-3.8-14.1c-2.5-3.1-6.6-4.7-12.1-4.7c-7.3,0-12.6,2.2-16.1,6.5
		c-3.4,4.4-5.1,11.7-5.1,21.9v40.5h-17.3V75.3h17.3v29.2c0,4.7-0.3,9.7-0.9,15h1.1c2.4-3.9,5.6-7,9.9-9.2c4.2-2.2,9.1-3.2,14.7-3.2
		c19.8,0,29.7,10,29.7,29.9V190.2z"/>
</g>
<g id="Elasticsearch_1_">
	<g>
		<path class="st2" d="M200.9,116.2H135c0.5,1.5,0.9,3,1.3,4.5c2.1,7.6,3.5,15.4,4.1,23.5c0.2,3.2,0.4,6.5,0.4,9.8s-0.1,6.6-0.4,9.8
			c-0.6,8.1-2,15.9-4.1,23.5c-0.4,1.5-0.9,3-1.3,4.5h65.9c20.7,0,37.5-16.9,37.6-37.7C238.5,133.2,221.7,116.2,200.9,116.2z"/>
		<path class="st3" d="M140.5,163.8c0.2-3.2,0.4-6.5,0.4-9.8s-0.1-6.6-0.4-9.8c-0.6-8.1-2-15.9-4.1-23.5c-0.4-1.5-0.9-3-1.3-4.5
			H33.2c-3.7,11.9-5.8,24.6-5.8,37.8s2,25.9,5.8,37.8H135c0.5-1.5,0.9-3,1.3-4.5C138.5,179.7,139.9,171.9,140.5,163.8z"/>
	</g>
	<g>
		<path class="st4" d="M212.4,204.4h-82c-2.5,5.6-5.3,11-8.5,16.2c-4.8,7.7-10.4,14.9-16.8,21.4c-2.1,2.2-4.3,4.2-6.5,6.3
			c-4.5,4-9.3,7.7-14.4,11c19.9,13.1,43.7,20.8,69.3,20.8c43.7,0,82.2-22.3,104.8-56.1C246.7,211.9,230.4,204.4,212.4,204.4z"/>
		<path class="st5" d="M121.8,220.5c3.2-5.1,6.1-10.5,8.5-16.2H38c9.8,22.4,26,41.5,46.2,54.8c5.1-3.3,9.9-7,14.4-11
			c2.3-2,4.4-4.1,6.5-6.3C111.4,235.4,117,228.3,121.8,220.5z"/>
	</g>
	<g>
		<path class="st6" d="M105.1,66.1c-2.1-2.2-4.3-4.2-6.5-6.3c-4.5-4-9.3-7.7-14.4-11C63.9,62.1,47.8,81.2,38,103.6h92.4
			c-2.5-5.6-5.3-11-8.5-16.2C117,79.7,111.4,72.6,105.1,66.1z"/>
		<path class="st7" d="M153.5,28c-25.6,0-49.4,7.7-69.3,20.8c5.1,3.3,9.9,7,14.4,11c2.3,2,4.4,4.1,6.5,6.3
			c6.3,6.5,11.9,13.6,16.8,21.4c3.2,5.1,6.1,10.5,8.5,16.2h82c18,0,34.3-7.5,45.9-19.5C235.7,50.3,197.2,28,153.5,28z"/>
	</g>
</g>
</svg>
